<svg width="33" height="31" viewBox="0 0 33 31" fill="none" xmlns="http://www.w3.org/2000/svg">
<g filter="url(#filter0_d_2_476)">
<ellipse cx="16.5068" cy="11.4048" rx="12.4932" ry="10.8043" fill="#FFB400"/>
<g clip-path="url(#clip0_2_476)">
<path d="M21.3589 11.1801C21.3091 10.3534 20.9766 9.55807 20.4036 8.89494C20.229 9.05756 20.0424 9.21019 19.8449 9.35187C19.2382 9.78771 18.5601 10.1435 17.8329 10.4075C17.9343 10.5914 18.0272 10.7694 18.1092 10.9375V10.939C18.1323 10.986 18.1546 11.0333 18.176 11.0809C19.0955 10.9916 20.0647 11.0241 21.0042 11.1339C21.1293 11.1486 21.2472 11.1644 21.3589 11.1801ZM15.6593 7.26732C16.2512 7.98852 16.797 8.73719 17.2942 9.50996C18.0369 9.25681 18.6509 8.93748 19.1453 8.58192C19.3169 8.45961 19.4784 8.32711 19.6287 8.18538C18.7548 7.54973 17.6491 7.20185 16.5071 7.20325C16.2229 7.20308 15.9393 7.22434 15.6593 7.2668V7.26732ZM11.8023 10.3529C12.2161 10.3439 12.6293 10.3223 13.0412 10.2883C14.037 10.2113 15.0243 10.0669 15.994 9.85659C15.4872 9.09515 14.94 8.35435 14.3542 7.63654C13.7285 7.90461 13.1768 8.28591 12.7365 8.7546C12.2962 9.22328 11.9776 9.76838 11.8023 10.3529ZM12.7315 14.0493C12.9672 13.7515 13.2769 13.4164 13.688 13.052C14.571 12.2694 15.6132 11.6602 16.8193 11.324L16.8569 11.3146C16.7567 11.1234 16.6626 10.9527 16.5679 10.792C15.4529 11.073 14.2783 11.2484 13.108 11.3393C12.5372 11.3839 12.0252 11.4033 11.6487 11.4065C11.6476 12.369 12.0303 13.3024 12.7321 14.0493H12.7315ZM18.3321 15.2993C18.0979 14.2779 17.7664 13.275 17.341 12.3009C16.1251 12.6827 15.1565 13.241 14.4077 13.907C14.1055 14.1708 13.8373 14.4623 13.6079 14.7762C14.4452 15.3165 15.4624 15.6079 16.5071 15.6066C17.1326 15.6073 17.7523 15.5034 18.3321 15.3004V15.2993ZM19.4696 14.7347C20.4177 14.1043 21.0637 13.1936 21.2836 12.177C21.0771 12.1323 20.8154 12.0877 20.5275 12.053C19.8875 11.9733 19.2381 11.9675 18.5963 12.0357C18.9577 12.9174 19.2494 13.8193 19.4696 14.7352V14.7347ZM16.5071 16.657C13.153 16.657 10.4341 14.3056 10.4341 11.4049C10.4341 8.50418 13.153 6.15283 16.5071 6.15283C19.8613 6.15283 22.5802 8.50418 22.5802 11.4049C22.5802 14.3056 19.8613 16.657 16.5071 16.657Z" fill="#2B2B2B"/>
</g>
</g>
<defs>
<filter id="filter0_d_2_476" x="0.0136719" y="0.600586" width="32.9863" height="29.6084" filterUnits="userSpaceOnUse" color-interpolation-filters="sRGB">
<feFlood flood-opacity="0" result="BackgroundImageFix"/>
<feColorMatrix in="SourceAlpha" type="matrix" values="0 0 0 0 0 0 0 0 0 0 0 0 0 0 0 0 0 0 127 0" result="hardAlpha"/>
<feOffset dy="4"/>
<feGaussianBlur stdDeviation="2"/>
<feComposite in2="hardAlpha" operator="out"/>
<feColorMatrix type="matrix" values="0 0 0 0 0 0 0 0 0 0 0 0 0 0 0 0 0 0 0.25 0"/>
<feBlend mode="normal" in2="BackgroundImageFix" result="effect1_dropShadow_2_476"/>
<feBlend mode="normal" in="SourceGraphic" in2="effect1_dropShadow_2_476" result="shape"/>
</filter>
<clipPath id="clip0_2_476">
<rect width="14.5753" height="12.605" fill="white" transform="translate(9.21924 5.10254)"/>
</clipPath>
</defs>
</svg>
