<svg width="16" height="13" viewBox="0 0 16 13" fill="none" xmlns="http://www.w3.org/2000/svg">
<g clip-path="url(#clip0_2_462)">
<path d="M8.09601 1.15283C9.74606 1.15283 9.95193 1.15808 10.5993 1.18434C11.2461 1.2106 11.6864 1.29831 12.0739 1.42857C12.4747 1.56197 12.8123 1.74264 13.15 2.03413C13.4588 2.29668 13.6978 2.61427 13.8502 2.9648C14.0002 3.29935 14.1023 3.68065 14.1326 4.24C14.1612 4.79987 14.1691 4.97792 14.1691 6.4049C14.1691 7.83189 14.163 8.00994 14.1326 8.56981C14.1023 9.12915 14.0002 9.50993 13.8502 9.84501C13.6982 10.1957 13.4592 10.5134 13.15 10.7757C12.8463 11.0427 12.4791 11.2493 12.0739 11.3812C11.687 11.511 11.2461 11.5992 10.5993 11.6255C9.95193 11.6501 9.74606 11.657 8.09601 11.657C6.44596 11.657 6.24008 11.6517 5.59269 11.6255C4.94591 11.5992 4.50562 11.511 4.11815 11.3812C3.71267 11.2497 3.34537 11.043 3.04201 10.7757C2.73314 10.5132 2.49418 10.1956 2.34178 9.84501C2.19117 9.51045 2.08975 9.12915 2.05939 8.56981C2.03084 8.00994 2.02295 7.83189 2.02295 6.4049C2.02295 4.97792 2.02902 4.79987 2.05939 4.24C2.08975 3.68013 2.19117 3.29988 2.34178 2.9648C2.49375 2.61405 2.73277 2.29638 3.04201 2.03413C3.34546 1.76692 3.71273 1.56025 4.11815 1.42857C4.50562 1.29831 4.94531 1.2106 5.59269 1.18434C6.24008 1.15966 6.44596 1.15283 8.09601 1.15283ZM8.09601 3.77887C7.29067 3.77887 6.51832 4.05554 5.94886 4.54802C5.3794 5.04049 5.05948 5.70844 5.05948 6.4049C5.05948 7.10137 5.3794 7.76931 5.94886 8.26179C6.51832 8.75427 7.29067 9.03094 8.09601 9.03094C8.90135 9.03094 9.6737 8.75427 10.2432 8.26179C10.8126 7.76931 11.1325 7.10137 11.1325 6.4049C11.1325 5.70844 10.8126 5.04049 10.2432 4.54802C9.6737 4.05554 8.90135 3.77887 8.09601 3.77887ZM12.0435 3.64757C12.0435 3.47345 11.9635 3.30646 11.8212 3.18334C11.6788 3.06022 11.4857 2.99106 11.2844 2.99106C11.083 2.99106 10.8899 3.06022 10.7476 3.18334C10.6052 3.30646 10.5252 3.47345 10.5252 3.64757C10.5252 3.82168 10.6052 3.98867 10.7476 4.11179C10.8899 4.23491 11.083 4.30408 11.2844 4.30408C11.4857 4.30408 11.6788 4.23491 11.8212 4.11179C11.9635 3.98867 12.0435 3.82168 12.0435 3.64757ZM8.09601 4.82928C8.57921 4.82928 9.04262 4.99528 9.3843 5.29077C9.72597 5.58626 9.91793 5.98702 9.91793 6.4049C9.91793 6.82278 9.72597 7.22355 9.3843 7.51904C9.04262 7.81452 8.57921 7.98053 8.09601 7.98053C7.61281 7.98053 7.14939 7.81452 6.80772 7.51904C6.46604 7.22355 6.27409 6.82278 6.27409 6.4049C6.27409 5.98702 6.46604 5.58626 6.80772 5.29077C7.14939 4.99528 7.61281 4.82928 8.09601 4.82928Z" fill="#2B2B2B"/>
</g>
<defs>
<clipPath id="clip0_2_462">
<rect width="14.5753" height="12.605" fill="white" transform="translate(0.808105 0.102539)"/>
</clipPath>
</defs>
</svg>
