<svg width="26" height="23" viewBox="0 0 26 23" fill="none" xmlns="http://www.w3.org/2000/svg">
<ellipse cx="13.3013" cy="11.4048" rx="12.4932" ry="10.8043" fill="#FFB400"/>
<g clip-path="url(#clip0_2_468)">
<path d="M10.2285 7.72867C10.2284 8.00726 10.1003 8.27438 9.87236 8.47128C9.64446 8.66817 9.33546 8.7787 9.01332 8.77856C8.69119 8.77842 8.38231 8.66762 8.15464 8.47053C7.92697 8.27344 7.79916 8.00621 7.79932 7.72762C7.79948 7.44904 7.9276 7.18191 8.1555 6.98502C8.3834 6.78813 8.6924 6.6776 9.01454 6.67773C9.33667 6.67787 9.64555 6.78868 9.87322 6.98577C10.1009 7.18285 10.2287 7.45009 10.2285 7.72867ZM10.265 9.55639H7.83575V16.132H10.265V9.55639ZM14.1032 9.55639H11.6861V16.132H14.0789V12.6814C14.0789 10.7591 16.9757 10.5805 16.9757 12.6814V16.132H19.3746V11.9671C19.3746 8.72657 15.087 8.84737 14.0789 10.4387L14.1032 9.55639Z" fill="#2B2B2B"/>
</g>
<defs>
<clipPath id="clip0_2_468">
<rect width="14.5753" height="12.605" fill="white" transform="translate(6.01367 5.10254)"/>
</clipPath>
</defs>
</svg>
