<svg width="26" height="23" viewBox="0 0 26 23" fill="none" xmlns="http://www.w3.org/2000/svg">
<ellipse cx="12.6987" cy="11.4048" rx="12.4932" ry="10.8043" fill="#FFB400"/>
<g clip-path="url(#clip0_2_464)">
<path d="M18.8704 8.07287C18.4068 8.25023 17.9151 8.36671 17.4117 8.41846C17.9423 8.144 18.3395 7.71206 18.5291 7.20313C18.0311 7.45943 17.4852 7.63905 16.9161 7.73621C16.5339 7.38253 16.0272 7.14796 15.4749 7.06898C14.9227 6.99 14.3557 7.07103 13.8621 7.29948C13.3686 7.52792 12.9761 7.89098 12.7458 8.33221C12.5155 8.77344 12.4602 9.26813 12.5884 9.73935C11.5786 9.69558 10.5906 9.46862 9.68873 9.07321C8.78686 8.67781 7.99122 8.12279 7.35347 7.4442C7.12772 7.77952 7.0091 8.1607 7.00973 8.54871C7.00973 9.31026 7.45792 9.98305 8.13932 10.377C7.73607 10.366 7.3417 10.2718 6.98908 10.1023V10.1296C6.9892 10.6368 7.19215 11.1283 7.5635 11.5209C7.93486 11.9134 8.45177 12.1829 9.02659 12.2835C8.65226 12.3712 8.25975 12.3841 7.87879 12.3213C8.04086 12.7578 8.35674 13.1396 8.78221 13.4132C9.20768 13.6868 9.72143 13.8385 10.2515 13.847C9.72468 14.2048 9.12144 14.4694 8.4763 14.6254C7.83116 14.7815 7.15678 14.8261 6.4917 14.7567C7.65268 15.4024 9.00418 15.7452 10.3845 15.744C15.0565 15.744 17.6115 12.3969 17.6115 9.49408C17.6115 9.39954 17.6084 9.30396 17.6036 9.21047C18.1009 8.89963 18.5301 8.51458 18.871 8.0734L18.8704 8.07287Z" fill="#2B2B2B"/>
</g>
<defs>
<clipPath id="clip0_2_464">
<rect width="14.5753" height="12.605" fill="white" transform="translate(5.41113 5.10254)"/>
</clipPath>
</defs>
</svg>
