<svg width="26" height="23" viewBox="0 0 26 23" fill="none" xmlns="http://www.w3.org/2000/svg">
<ellipse cx="12.9043" cy="11.4048" rx="12.4932" ry="10.8043" fill="#FFB400"/>
<g clip-path="url(#clip0_2_472)">
<path d="M18.6996 8.51509C18.9772 9.45101 18.9772 11.4048 18.9772 11.4048C18.9772 11.4048 18.9772 13.3586 18.6996 14.2945C18.5454 14.8118 18.0941 15.2188 17.5227 15.3564C16.4848 15.6064 12.9041 15.6064 12.9041 15.6064C12.9041 15.6064 9.32526 15.6064 8.28555 15.3564C7.71165 15.2167 7.26103 14.8102 7.10859 14.2945C6.83105 13.3586 6.83105 11.4048 6.83105 11.4048C6.83105 11.4048 6.83105 9.45101 7.10859 8.51509C7.26285 7.99776 7.71408 7.59073 8.28555 7.45312C9.32526 7.20312 12.9041 7.20312 12.9041 7.20312C12.9041 7.20312 16.4848 7.20312 17.5227 7.45312C18.0966 7.59283 18.5472 7.99934 18.6996 8.51509ZM11.6895 13.243L15.3333 11.4048L11.6895 9.56656V13.243Z" fill="#2B2B2B"/>
</g>
<defs>
<clipPath id="clip0_2_472">
<rect width="14.5753" height="12.605" fill="white" transform="translate(5.61621 5.10254)"/>
</clipPath>
</defs>
</svg>
